<?xml version="1.0" encoding="utf-8"?>
<!-- Generator: Adobe Illustrator 22.0.0, SVG Export Plug-In . SVG Version: 6.00 Build 0)  -->
<svg version="1.1" id="Слой_1" xmlns="http://www.w3.org/2000/svg" xmlns:xlink="http://www.w3.org/1999/xlink" x="0px" y="0px"
	 viewBox="0 0 20 17.9" style="enable-background:new 0 0 20 17.9;" xml:space="preserve">
<style type="text/css">
	.st0{fill:#BCBCBC;}
</style>
<g>
	<path class="st0" d="M18,4.1H2c-1.1,0-2-0.9-2-2v0c0-1.1,0.9-2,2-2h16c1.1,0,2,0.9,2,2v0C20,3.2,19.1,4.1,18,4.1z"/>
</g>
<g>
	<path class="st0" d="M18,11H2c-1.1,0-2-0.9-2-2v0c0-1.1,0.9-2,2-2h16c1.1,0,2,0.9,2,2v0C20,10.1,19.1,11,18,11z"/>
</g>
<g>
	<path class="st0" d="M18,17.8H2c-1.1,0-2-0.9-2-2v0c0-1.1,0.9-2,2-2h16c1.1,0,2,0.9,2,2v0C20,16.9,19.1,17.8,18,17.8z"/>
</g>
</svg>
